<svg xmlns="http://www.w3.org/2000/svg" viewBox="0 0 512 512">
  <!-- Background circle -->
  <circle cx="256" cy="256" r="240" fill="#2563eb"/>
  
  <!-- Tennis court background (lighter blue) -->
  <rect x="80" y="140" width="352" height="240" rx="12" fill="white" opacity="0.2"/>
  
  <!-- Court outline -->
  <rect x="80" y="140" width="352" height="240" rx="12" fill="none" stroke="white" stroke-width="14"/>
  
  <!-- Net line (center) -->
  <line x1="256" y1="140" x2="256" y2="380" stroke="white" stroke-width="14"/>
  
  <!-- Service boxes -->
  <line x1="80" y1="220" x2="432" y2="220" stroke="white" stroke-width="10"/>
  <line x1="80" y1="300" x2="432" y2="300" stroke="white" stroke-width="10"/>
  <line x1="184" y1="140" x2="184" y2="380" stroke="white" stroke-width="10"/>
  <line x1="328" y1="140" x2="328" y2="380" stroke="white" stroke-width="10"/>
  
  <!-- Center service line -->
  <line x1="184" y1="260" x2="328" y2="260" stroke="white" stroke-width="10"/>
  
  <!-- Tennis balls (decorative) -->
  <circle cx="140" cy="420" r="32" fill="white"/>
  <path d="M 140 388 Q 156 420 140 452 M 140 388 Q 124 420 140 452" stroke="#2563eb" stroke-width="6" fill="none"/>
  
  <circle cx="372" cy="420" r="32" fill="white"/>
  <path d="M 372 388 Q 388 420 372 452 M 372 388 Q 356 420 372 452" stroke="#2563eb" stroke-width="6" fill="none"/>
</svg>
